<mxfile host="app.diagrams.net" modified="2021-03-30T14:13:43.679Z" agent="5.0 (Windows NT 10.0; Win64; x64) AppleWebKit/537.36 (KHTML, like Gecko) Chrome/89.0.4389.90 Safari/537.36" etag="mqjEAcp5zUf4UeD4NCbO" version="14.5.3" type="github">
  <diagram id="MY1FBkkxFkCi1UnH8088" name="Page-1">
    <mxGraphModel dx="2500" dy="896" grid="1" gridSize="10" guides="1" tooltips="1" connect="1" arrows="1" fold="1" page="1" pageScale="1" pageWidth="827" pageHeight="1169" math="0" shadow="0">
      <root>
        <mxCell id="0" />
        <mxCell id="1" parent="0" />
        <mxCell id="q28TteYi_yLzeVCyHo7f-1" value="" style="line;strokeWidth=2;direction=south;html=1;" vertex="1" parent="1">
          <mxGeometry x="200" y="360" width="10" height="690" as="geometry" />
        </mxCell>
        <mxCell id="q28TteYi_yLzeVCyHo7f-3" value="" style="line;strokeWidth=2;html=1;" vertex="1" parent="1">
          <mxGeometry x="210" y="520" width="600" height="10" as="geometry" />
        </mxCell>
        <mxCell id="q28TteYi_yLzeVCyHo7f-60" style="edgeStyle=orthogonalEdgeStyle;rounded=0;orthogonalLoop=1;jettySize=auto;html=1;" edge="1" parent="1" source="q28TteYi_yLzeVCyHo7f-4">
          <mxGeometry relative="1" as="geometry">
            <mxPoint x="-400" y="355" as="targetPoint" />
          </mxGeometry>
        </mxCell>
        <mxCell id="q28TteYi_yLzeVCyHo7f-4" value="" style="line;strokeWidth=2;html=1;" vertex="1" parent="1">
          <mxGeometry x="-230" y="350" width="1040" height="10" as="geometry" />
        </mxCell>
        <mxCell id="q28TteYi_yLzeVCyHo7f-5" value="互联网" style="text;strokeColor=none;fillColor=none;html=1;fontSize=24;fontStyle=1;verticalAlign=middle;align=center;" vertex="1" parent="1">
          <mxGeometry x="-160" y="380" width="100" height="40" as="geometry" />
        </mxCell>
        <mxCell id="q28TteYi_yLzeVCyHo7f-6" value="调度网坐席" style="text;strokeColor=none;fillColor=none;html=1;fontSize=24;fontStyle=1;verticalAlign=middle;align=center;" vertex="1" parent="1">
          <mxGeometry x="230" y="370" width="100" height="40" as="geometry" />
        </mxCell>
        <mxCell id="q28TteYi_yLzeVCyHo7f-7" value="调度网服务器" style="text;strokeColor=none;fillColor=none;html=1;fontSize=24;fontStyle=1;verticalAlign=middle;align=center;" vertex="1" parent="1">
          <mxGeometry x="230" y="523" width="100" height="40" as="geometry" />
        </mxCell>
        <mxCell id="q28TteYi_yLzeVCyHo7f-8" value="192.168.2.X" style="shape=ext;double=1;rounded=1;whiteSpace=wrap;html=1;" vertex="1" parent="1">
          <mxGeometry x="230" y="420" width="120" height="80" as="geometry" />
        </mxCell>
        <mxCell id="q28TteYi_yLzeVCyHo7f-9" value="" style="shape=ext;double=1;rounded=1;whiteSpace=wrap;html=1;" vertex="1" parent="1">
          <mxGeometry x="230" y="640" width="290" height="170" as="geometry" />
        </mxCell>
        <mxCell id="q28TteYi_yLzeVCyHo7f-27" value="内网ip:172.16.93.45" style="text;html=1;strokeColor=none;fillColor=none;align=center;verticalAlign=middle;whiteSpace=wrap;rounded=0;" vertex="1" parent="1">
          <mxGeometry x="260" y="705" width="240" height="40" as="geometry" />
        </mxCell>
        <mxCell id="q28TteYi_yLzeVCyHo7f-28" value="调度网网ip:192.168.2.45" style="text;html=1;strokeColor=none;fillColor=none;align=center;verticalAlign=middle;whiteSpace=wrap;rounded=0;" vertex="1" parent="1">
          <mxGeometry x="260" y="750" width="240" height="40" as="geometry" />
        </mxCell>
        <mxCell id="q28TteYi_yLzeVCyHo7f-29" value="应用服务器Master" style="text;html=1;strokeColor=none;fillColor=none;align=center;verticalAlign=middle;whiteSpace=wrap;rounded=0;" vertex="1" parent="1">
          <mxGeometry x="260" y="665" width="240" height="40" as="geometry" />
        </mxCell>
        <mxCell id="q28TteYi_yLzeVCyHo7f-30" value="" style="shape=ext;double=1;rounded=1;whiteSpace=wrap;html=1;" vertex="1" parent="1">
          <mxGeometry x="530" y="640" width="290" height="170" as="geometry" />
        </mxCell>
        <mxCell id="q28TteYi_yLzeVCyHo7f-31" value="内网ip:172.16.93.46" style="text;html=1;strokeColor=none;fillColor=none;align=center;verticalAlign=middle;whiteSpace=wrap;rounded=0;" vertex="1" parent="1">
          <mxGeometry x="560" y="705" width="240" height="40" as="geometry" />
        </mxCell>
        <mxCell id="q28TteYi_yLzeVCyHo7f-32" value="调度网网ip:192.168.2.46" style="text;html=1;strokeColor=none;fillColor=none;align=center;verticalAlign=middle;whiteSpace=wrap;rounded=0;" vertex="1" parent="1">
          <mxGeometry x="560" y="750" width="240" height="40" as="geometry" />
        </mxCell>
        <mxCell id="q28TteYi_yLzeVCyHo7f-33" value="应用服务器Slave" style="text;html=1;strokeColor=none;fillColor=none;align=center;verticalAlign=middle;whiteSpace=wrap;rounded=0;" vertex="1" parent="1">
          <mxGeometry x="560" y="665" width="240" height="40" as="geometry" />
        </mxCell>
        <mxCell id="q28TteYi_yLzeVCyHo7f-34" value="" style="shape=ext;double=1;rounded=1;whiteSpace=wrap;html=1;" vertex="1" parent="1">
          <mxGeometry x="230" y="840" width="290" height="170" as="geometry" />
        </mxCell>
        <mxCell id="q28TteYi_yLzeVCyHo7f-35" value="内网ip:172.16.93.47" style="text;html=1;strokeColor=none;fillColor=none;align=center;verticalAlign=middle;whiteSpace=wrap;rounded=0;" vertex="1" parent="1">
          <mxGeometry x="260" y="905" width="240" height="40" as="geometry" />
        </mxCell>
        <mxCell id="q28TteYi_yLzeVCyHo7f-36" value="调度网网ip:192.168.2.47" style="text;html=1;strokeColor=none;fillColor=none;align=center;verticalAlign=middle;whiteSpace=wrap;rounded=0;" vertex="1" parent="1">
          <mxGeometry x="260" y="950" width="240" height="40" as="geometry" />
        </mxCell>
        <mxCell id="q28TteYi_yLzeVCyHo7f-37" value="mysql服务器Master" style="text;html=1;strokeColor=none;fillColor=none;align=center;verticalAlign=middle;whiteSpace=wrap;rounded=0;" vertex="1" parent="1">
          <mxGeometry x="260" y="865" width="240" height="40" as="geometry" />
        </mxCell>
        <mxCell id="q28TteYi_yLzeVCyHo7f-38" value="" style="shape=ext;double=1;rounded=1;whiteSpace=wrap;html=1;" vertex="1" parent="1">
          <mxGeometry x="530" y="840" width="290" height="170" as="geometry" />
        </mxCell>
        <mxCell id="q28TteYi_yLzeVCyHo7f-39" value="内网ip:172.16.93.48" style="text;html=1;strokeColor=none;fillColor=none;align=center;verticalAlign=middle;whiteSpace=wrap;rounded=0;" vertex="1" parent="1">
          <mxGeometry x="560" y="905" width="240" height="40" as="geometry" />
        </mxCell>
        <mxCell id="q28TteYi_yLzeVCyHo7f-40" value="调度网网ip:192.168.2.48" style="text;html=1;strokeColor=none;fillColor=none;align=center;verticalAlign=middle;whiteSpace=wrap;rounded=0;" vertex="1" parent="1">
          <mxGeometry x="560" y="950" width="240" height="40" as="geometry" />
        </mxCell>
        <mxCell id="q28TteYi_yLzeVCyHo7f-41" value="mysql服务器Slave" style="text;html=1;strokeColor=none;fillColor=none;align=center;verticalAlign=middle;whiteSpace=wrap;rounded=0;" vertex="1" parent="1">
          <mxGeometry x="560" y="865" width="240" height="40" as="geometry" />
        </mxCell>
        <mxCell id="q28TteYi_yLzeVCyHo7f-43" value="" style="shape=ext;double=1;rounded=1;whiteSpace=wrap;html=1;" vertex="1" parent="1">
          <mxGeometry x="-150" y="553.5" width="240" height="300" as="geometry" />
        </mxCell>
        <mxCell id="q28TteYi_yLzeVCyHo7f-44" value="内网ip:192.168.3.51" style="text;html=1;strokeColor=none;fillColor=none;align=center;verticalAlign=middle;whiteSpace=wrap;rounded=0;" vertex="1" parent="1">
          <mxGeometry x="-180" y="673.5" width="240" height="40" as="geometry" />
        </mxCell>
        <mxCell id="q28TteYi_yLzeVCyHo7f-45" value="互联网ip:119.97.224.2" style="text;html=1;strokeColor=none;fillColor=none;align=center;verticalAlign=middle;whiteSpace=wrap;rounded=0;" vertex="1" parent="1">
          <mxGeometry x="-180" y="718.5" width="240" height="40" as="geometry" />
        </mxCell>
        <mxCell id="q28TteYi_yLzeVCyHo7f-46" value="应用服务器" style="text;html=1;strokeColor=none;fillColor=none;align=center;verticalAlign=middle;whiteSpace=wrap;rounded=0;" vertex="1" parent="1">
          <mxGeometry x="-180" y="633.5" width="240" height="45" as="geometry" />
        </mxCell>
        <mxCell id="q28TteYi_yLzeVCyHo7f-47" value="" style="line;strokeWidth=2;direction=south;html=1;" vertex="1" parent="1">
          <mxGeometry x="100" y="360" width="10" height="690" as="geometry" />
        </mxCell>
        <mxCell id="q28TteYi_yLzeVCyHo7f-48" value="网&lt;span style=&quot;color: rgba(0 , 0 , 0 , 0) ; font-family: monospace ; font-size: 0px ; font-weight: 400&quot;&gt;%3CmxGraphModel%3E%3Croot%3E%3CmxCell%20id%3D%220%22%2F%3E%3CmxCell%20id%3D%221%22%20parent%3D%220%22%2F%3E%3CmxCell%20id%3D%222%22%20value%3D%22%22%20style%3D%22line%3BstrokeWidth%3D2%3Bdirection%3Dsouth%3Bhtml%3D1%3B%22%20vertex%3D%221%22%20parent%3D%221%22%3E%3CmxGeometry%20x%3D%22200%22%20y%3D%22360%22%20width%3D%2210%22%20height%3D%22690%22%20as%3D%22geometry%22%2F%3E%3C%2FmxCell%3E%3C%2Froot%3E%3C%2FmxGraphModel%3E&lt;/span&gt;" style="text;strokeColor=none;fillColor=none;html=1;fontSize=24;fontStyle=1;verticalAlign=middle;align=center;" vertex="1" parent="1">
          <mxGeometry x="110" y="523" width="100" height="67" as="geometry" />
        </mxCell>
        <mxCell id="q28TteYi_yLzeVCyHo7f-49" value="闸" style="text;strokeColor=none;fillColor=none;html=1;fontSize=24;fontStyle=1;verticalAlign=middle;align=center;" vertex="1" parent="1">
          <mxGeometry x="110" y="786.5" width="100" height="67" as="geometry" />
        </mxCell>
        <mxCell id="q28TteYi_yLzeVCyHo7f-51" value="内网侧网闸ip:192.168.2.50" style="text;strokeColor=none;fillColor=none;html=1;fontSize=24;fontStyle=1;verticalAlign=middle;align=center;" vertex="1" parent="1">
          <mxGeometry x="210" y="1010" width="100" height="40" as="geometry" />
        </mxCell>
        <mxCell id="q28TteYi_yLzeVCyHo7f-52" value="外网侧网闸ip:192.168.3.50" style="text;strokeColor=none;fillColor=none;html=1;fontSize=24;fontStyle=1;verticalAlign=middle;align=center;" vertex="1" parent="1">
          <mxGeometry x="-20" y="450" width="100" height="40" as="geometry" />
        </mxCell>
        <mxCell id="q28TteYi_yLzeVCyHo7f-54" value="" style="shape=curlyBracket;whiteSpace=wrap;html=1;rounded=1;direction=south;" vertex="1" parent="1">
          <mxGeometry x="227" y="600" width="600" height="50" as="geometry" />
        </mxCell>
        <mxCell id="q28TteYi_yLzeVCyHo7f-55" value="统一用keepalived代理端口ip:192.168.2.49" style="text;strokeColor=none;fillColor=none;html=1;fontSize=24;fontStyle=1;verticalAlign=middle;align=center;" vertex="1" parent="1">
          <mxGeometry x="440" y="560" width="100" height="40" as="geometry" />
        </mxCell>
        <mxCell id="q28TteYi_yLzeVCyHo7f-57" value="" style="shape=ext;double=1;rounded=0;whiteSpace=wrap;html=1;" vertex="1" parent="1">
          <mxGeometry x="-390" y="640" width="120" height="80" as="geometry" />
        </mxCell>
        <mxCell id="q28TteYi_yLzeVCyHo7f-58" value="APP" style="text;strokeColor=none;fillColor=none;html=1;fontSize=24;fontStyle=1;verticalAlign=middle;align=center;" vertex="1" parent="1">
          <mxGeometry x="-380" y="660" width="100" height="40" as="geometry" />
        </mxCell>
        <mxCell id="q28TteYi_yLzeVCyHo7f-59" value="" style="shape=singleArrow;whiteSpace=wrap;html=1;" vertex="1" parent="1">
          <mxGeometry x="-270" y="650" width="110" height="60" as="geometry" />
        </mxCell>
      </root>
    </mxGraphModel>
  </diagram>
</mxfile>
